<svg id="visual" viewBox="0 0 900 370" width="900" height="700" xmlns="http://www.w3.org/2000/svg" xmlns:xlink="http://www.w3.org/1999/xlink" version="1.1"><rect x="0" y="0" width="900" height="600" fill="#00000000"></rect><path d="M0 343L25 325.8C50 308.7 100 274.3 150 260.8C200 247.3 250 254.7 300 270.7C350 286.7 400 311.3 450 326C500 340.7 550 345.3 600 344.2C650 343 700 336 750 319.3C800 302.7 850 276.3 875 263.2L900 250L900 0L875 0C850 0 800 0 750 0C700 0 650 0 600 0C550 0 500 0 450 0C400 0 350 0 300 0C250 0 200 0 150 0C100 0 50 0 25 0L0 0Z" fill="#0E2F41" stroke-linecap="round" stroke-linejoin="miter"></path></svg>