<svg xmlns="http://www.w3.org/2000/svg" fill="rgb(209 213 219)" height="40" viewBox="0 -960 960 960" width="40"><path d="M663.538-475.86 476.63-662.769l186.908-186.908 186.908 186.908L663.538-475.86Zm-505.536-60.974v-264.754h264.497v264.754H158.002Zm378.832 378.832v-264.972h265.228v264.972H536.834Zm-378.832 0v-264.497h264.497v264.497H158.002Zm47.883-426.715h168.731v-168.987H205.885v168.987Zm459.73 43.666 119.641-119.641-119.641-119.897-119.898 119.897 119.898 119.641Zm-80.898 335.166h169.462v-169.206H584.717v169.206Zm-378.832 0h168.731v-168.731H205.885v168.731Zm168.731-378.832Zm171.101-75.975ZM374.616-374.616Zm210.101-.475Z"/></svg>