<svg xmlns="http://www.w3.org/2000/svg" fill="rgb(209 213 219)" height="40" viewBox="0 -960 960 960" width="40"><path d="M479.895-294.796q12.656 0 20.906-8.144 8.25-8.145 8.25-20.673 0-12.528-8.145-20.778-8.144-8.25-20.801-8.25-12.656 0-20.778 8.145-8.121 8.144-8.121 20.673 0 12.528 8.016 20.778 8.016 8.249 20.673 8.249Zm-23.574-128.793h47.883v-250.616h-47.883v250.616ZM340.359-144.27 144.27-340.364v-279.277L340.364-815.73h279.277L815.73-619.636v279.277L619.636-144.27H340.359Zm20.303-47.884h239.314l167.87-168.508v-239.314l-168.02-167.87H360.513l-168.359 168.02v239.313l168.508 168.359ZM480-480Z"/></svg>