<svg xmlns="http://www.w3.org/2000/svg" fill="rgb(209 213 219)" height="40" viewBox="0 -960 960 960" width="40"><path d="M164.852-144.745q-24.521 0-42.314-17.793t-17.793-42.399v-434.87q0-24.605 17.793-42.398 17.793-17.794 42.399-17.794h177.91v-75.092q0-24.618 17.794-42.39 17.793-17.773 42.318-17.773h154.082q24.525 0 42.318 17.793 17.794 17.794 17.794 42.399v75.063h177.91q24.606 0 42.399 17.794 17.793 17.793 17.793 42.398v434.87q0 24.606-17.793 42.399t-42.314 17.793H164.852Zm225.879-555.254h178.538v-75.063q0-4.616-3.846-8.462-3.847-3.847-8.462-3.847H403.039q-4.615 0-8.462 3.847-3.846 3.846-3.846 8.462v75.063Zm416.641 323.293H563.447v58.833H397.899v-58.833H152.628v171.769q0 4.616 3.846 8.463 3.847 3.846 8.463 3.846h630.126q4.616 0 8.463-3.846 3.846-3.847 3.846-8.463v-171.769Zm-361.59 10.95h69.782v-69.782h-69.782v69.782Zm-293.154-58.833h245.271v-58.833h165.548v58.833h243.925v-215.218q0-4.615-3.846-8.462-3.847-3.846-8.463-3.846H164.937q-4.616 0-8.463 3.846-3.846 3.847-3.846 8.462v215.218ZM480-400.91Z"/></svg>