<svg xmlns="http://www.w3.org/2000/svg" fill="rgb(209 213 219)" height="40" viewBox="0 -960 960 960" width="40"><path d="M21.45-249.911v-42.442q0-37.495 39.91-61.468 39.91-23.973 104.404-23.973 11.651 0 23.073.846t22.445 2.763q-8.294 16.986-12.448 34.071-4.154 17.086-4.154 34.997v55.206H21.45Zm240 0v-53.618q0-27.411 15.365-50.754 15.366-23.344 45.128-40.152 29.763-16.807 69.866-25.724 40.103-8.917 87.823-8.917 48.638 0 88.97 8.917 40.333 8.917 69.833 25.724 29.5 16.808 45.07 40.071 15.571 23.264 15.571 50.954v53.499H261.45Zm503.87 0v-55.049q0-18.453-3.872-35.99-3.872-17.537-11.756-33.185 11.769-1.981 22.8-2.82 11.031-.839 22.379-.839 64.577 0 104.391 23.662 39.814 23.661 39.814 61.79v42.431H765.32Zm-455.692-47.883h341.475V-305q-1.333-33.384-48.538-54.788-47.206-21.404-122.315-21.404-74.853 0-122.449 21.404-47.596 21.404-48.173 55.199v6.795ZM165.189-414.14q-25.688 0-43.752-18.268-18.064-18.269-18.064-43.971 0-25.734 18.269-43.958 18.268-18.224 43.971-18.224 25.734 0 44.15 18.164 18.416 18.164 18.416 44.454 0 25.291-18.145 43.547-18.145 18.256-44.845 18.256Zm629.46 0q-25.406 0-43.662-18.389-18.256-18.388-18.256-43.736 0-25.848 18.389-44.072 18.388-18.224 43.925-18.224 26.044 0 44.268 18.164t18.224 44.339q0 25.646-18.116 43.782-18.116 18.136-44.772 18.136ZM480.05-461.447q-42.652 0-72.549-29.876-29.897-29.876-29.897-72.556 0-43.317 29.875-73.101 29.876-29.785 72.556-29.785 43.317 0 73.102 29.683 29.785 29.683 29.785 73.188 0 42.653-29.683 72.55t-73.189 29.897Zm.53-47.883q22.561 0 38.51-15.805 15.949-15.804 15.949-39.289 0-22.561-15.955-38.509-15.954-15.949-38.85-15.949-22.939 0-38.843 15.954-15.904 15.955-15.904 38.851 0 22.939 15.804 38.843 15.805 15.904 39.289 15.904Zm-.375 211.536ZM480-563.844Z"/></svg>